<?xml version="1.0" standalone="no"?>
<!DOCTYPE svg PUBLIC "-//W3C//DTD SVG 20010904//EN"
 "http://www.w3.org/TR/2001/REC-SVG-20010904/DTD/svg10.dtd">
<svg version="1.0" xmlns="http://www.w3.org/2000/svg"
 width="1656.000000pt" height="1656.000000pt" viewBox="0 0 1656.000000 1656.000000"
 preserveAspectRatio="xMidYMid meet">
<metadata>
Created by potrace 1.14, written by Peter Selinger 2001-2017
</metadata>
<g transform="translate(0.000000,1656.000000) scale(0.100000,-0.100000)"
fill="#000000" stroke="none">
<path d="M953 12359 c-124 -39 -219 -137 -262 -269 -6 -19 -38 -316 -71 -660
-57 -598 -84 -879 -185 -1925 -58 -602 -109 -1134 -135 -1400 -11 -115 -38
-397 -60 -625 -22 -228 -60 -624 -84 -880 -25 -256 -52 -537 -61 -625 -8 -88
-26 -275 -40 -415 -61 -628 -59 -609 -46 -674 71 -346 525 -437 720 -145 68
101 40 -124 236 1919 30 311 70 729 89 930 116 1201 151 1567 196 2030 27 283
56 594 65 690 23 242 23 243 67 150 20 -41 301 -608 625 -1260 562 -1130 592
-1187 639 -1229 121 -107 271 -136 415 -81 96 36 143 80 233 218 64 97 895
1392 1164 1812 23 36 42 59 42 51 0 -8 -13 -152 -30 -320 -28 -292 -62 -637
-150 -1561 -22 -228 -49 -507 -60 -620 -11 -113 -38 -394 -60 -625 -22 -231
-59 -607 -81 -835 -22 -228 -57 -602 -79 -830 -22 -228 -44 -457 -49 -508 -17
-163 17 -276 111 -372 156 -158 414 -156 567 5 53 56 83 107 100 171 6 22 35
299 66 615 30 315 75 786 100 1044 96 998 127 1316 170 1765 24 256 65 677 90
935 102 1060 243 2523 256 2670 10 104 9 129 -5 185 -42 161 -162 273 -327
302 -116 20 -253 -25 -339 -112 -27 -28 -383 -573 -917 -1405 -480 -748 -879
-1369 -887 -1380 -14 -19 -32 15 -279 515 -782 1581 -1289 2594 -1315 2626
-100 121 -276 172 -429 123z"/>
<path d="M12514 12280 c-134 -27 -254 -131 -299 -259 -9 -27 -47 -345 -95
-800 -62 -589 -316 -3004 -641 -6098 -22 -209 51 -357 215 -439 l73 -35 364
-39 c1772 -190 3158 -333 3224 -333 177 0 325 108 376 276 67 218 -58 448
-276 506 -22 5 -708 80 -1525 166 -817 85 -1514 159 -1550 163 l-65 7 2 35 c3
34 143 1385 183 1755 39 368 63 592 155 1470 52 495 148 1416 215 2046 66 631
120 1169 120 1196 0 242 -234 431 -476 383z"/>
<path d="M6520 12033 c-224 -44 -389 -126 -538 -267 -98 -93 -155 -171 -213
-291 -68 -139 -90 -230 -96 -396 -6 -156 4 -231 48 -365 84 -257 273 -468 525
-586 139 -65 255 -90 414 -92 188 -1 309 27 474 112 526 269 702 944 377 1438
-105 159 -238 275 -412 358 -144 69 -227 88 -404 91 -82 2 -161 1 -175 -2z
m235 -812 c150 -68 160 -275 17 -358 -92 -54 -208 -28 -269 60 -54 77 -40 200
29 264 56 53 151 67 223 34z"/>
<path d="M10030 12021 c-394 -84 -702 -398 -781 -796 -21 -107 -17 -311 9
-415 46 -190 133 -344 271 -481 141 -140 291 -224 481 -272 130 -32 340 -29
475 7 360 95 627 363 728 731 19 69 22 104 21 250 0 155 -3 178 -28 259 -116
383 -396 641 -778 720 -104 21 -288 20 -398 -3z m301 -804 c207 -110 89 -428
-140 -377 -86 19 -161 111 -161 196 0 68 62 163 125 190 49 21 126 17 176 -9z"/>
<path d="M13656 11430 c-138 -35 -268 -162 -300 -293 -4 -15 -65 -596 -136
-1290 -138 -1350 -172 -1680 -220 -2152 -17 -165 -37 -363 -45 -440 -19 -177
-19 -302 0 -435 98 -688 597 -1224 1279 -1372 86 -19 132 -22 311 -22 180 0
225 3 312 22 428 93 774 324 1021 680 105 151 209 392 246 572 9 41 52 415 96
830 296 2800 341 3239 337 3290 -12 136 -99 260 -225 322 -62 31 -73 33 -172
33 -99 0 -110 -2 -172 -33 -85 -41 -168 -129 -197 -207 -25 -67 -28 -87 -141
-1175 -269 -2577 -301 -2867 -320 -2938 -78 -286 -313 -513 -604 -582 -100
-25 -250 -26 -349 -4 -92 20 -234 88 -314 148 -156 118 -271 306 -309 503 -23
120 -27 66 77 1068 11 110 29 283 39 385 11 102 28 275 40 385 187 1816 231
2268 228 2342 -5 103 -44 188 -118 257 -96 90 -249 134 -364 106z"/>
<path d="M8125 10214 c-16 -2 -79 -9 -140 -15 -223 -22 -516 -92 -727 -175
-937 -367 -1616 -1170 -1817 -2146 -45 -223 -56 -332 -56 -588 0 -318 25 -511
105 -795 199 -710 651 -1309 1284 -1703 334 -208 702 -341 1136 -409 179 -28
655 -25 839 5 654 107 1208 393 1657 853 439 451 708 993 806 1624 20 131 23
186 22 425 0 234 -4 297 -23 420 -99 642 -380 1200 -831 1650 -460 460 -1041
747 -1695 835 -113 15 -494 28 -560 19z m525 -824 c1203 -198 1995 -1354 1744
-2544 -86 -406 -280 -763 -578 -1062 -350 -350 -795 -564 -1285 -615 -158 -16
-443 -7 -591 20 -583 107 -1080 434 -1406 926 -512 773 -462 1790 124 2516 83
104 291 302 391 373 332 238 695 373 1101 410 102 9 379 -4 500 -24z"/>
</g>
</svg>
