<?xml version="1.0" encoding="UTF-8"?><svg id="Layer_1" xmlns="http://www.w3.org/2000/svg" viewBox="0 0 207.01 102.49"><defs><style>.cls-1{fill:#fde047;stroke-miterlimit:10;}.cls-1,.cls-2{stroke:#000;stroke-linecap:round;stroke-width:10px;}.cls-2{fill:none;stroke-linejoin:round;}</style></defs><path class="cls-2" d="m5,92.69C7.81,63.46,10.63,34.23,13.44,5c7.68,15.49,15.37,30.98,23.05,46.47L63.24,9.79c-2.81,29.23-5.63,58.46-8.44,87.69"/><circle class="cls-1" cx="103.89" cy="63.65" r="31.64"/><path class="cls-2" d="m202.01,19.95c-1.92,18.23-3.22,30.66-5.14,48.89-1.13,8.18-8.63,14-16.67,13.1-7.82-.87-13.79-7.82-13.44-15.83,1.85-18.07,3.2-31.27,5.05-49.34"/><polyline class="cls-2" points="157.41 6.15 148.41 91.76 191.92 96.33"/><circle class="cls-1" cx="83.39" cy="16.78" r="7.57"/><circle class="cls-1" cx="127.97" cy="16.78" r="7.57"/></svg>